# Made in Blockbench 4.9.1
mtllib chickenonhead.mtl

o cube
v 0.234375 2.921875 0.234375
v 0.234375 2.921875 -0.234375
v 0.234375 2.8046875 0.234375
v 0.234375 2.8046875 -0.234375
v -0.234375 2.921875 -0.234375
v -0.234375 2.921875 0.234375
v -0.234375 2.8046875 -0.234375
v -0.234375 2.8046875 0.234375
vt 0.376 0.5615
vt 0.749 0.5615
vt 0.749 0.46975
vt 0.376 0.46975
vt 0.376 0.46775
vt 0.749 0.46775
vt 0.749 0.376
vt 0.376 0.376
vt 0.59475 0.999
vt 0.96775 0.999
vt 0.96775 0.90725
vt 0.59475 0.90725
vt 0.59475 0.90525
vt 0.96775 0.90525
vt 0.96775 0.8135
vt 0.59475 0.8135
vt 0.374 0.626
vt 0.001 0.626
vt 0.001 0.999
vt 0.374 0.999
vt 0.374 0.624
vt 0.001 0.624
vt 0.001 0.251
vt 0.374 0.251
vn 0 0 -1
vn 1 0 0
vn 0 0 1
vn -1 0 0
vn 0 1 0
vn 0 -1 0
usemtl m_fe6d77fe-789f-14b4-a005-34b1c9a6bc7b
f 4/4/1 7/3/1 5/2/1 2/1/1
f 3/8/2 4/7/2 2/6/2 1/5/2
f 8/12/3 3/11/3 1/10/3 6/9/3
f 7/16/4 8/15/4 6/14/4 5/13/4
f 6/20/5 1/19/5 2/18/5 5/17/5
f 7/24/6 4/23/6 3/22/6 8/21/6
o cube
v 0.13671875 3.0390625 0.15625
v 0.13671875 3.0390625 -0.1171875
v 0.13671875 2.8828125 0.15625
v 0.13671875 2.8828125 -0.1171875
v -0.13671875 3.0390625 -0.1171875
v -0.13671875 3.0390625 0.15625
v -0.13671875 2.8828125 -0.1171875
v -0.13671875 2.8828125 0.15625
vt 0.53225 0.374
vt 0.749 0.374
vt 0.749 0.251
vt 0.53225 0.251
vt 0.001 0.249
vt 0.21775 0.249
vt 0.21775 0.126
vt 0.001 0.126
vt 0.751 0.8115
vt 0.96775 0.8115
vt 0.96775 0.6885
vt 0.751 0.6885
vt 0.751 0.6865
vt 0.96775 0.6865
vt 0.96775 0.5635
vt 0.751 0.5635
vt 0.59275 0.78225
vt 0.376 0.78225
vt 0.376 0.999
vt 0.59275 0.999
vt 0.59275 0.78025
vt 0.376 0.78025
vt 0.376 0.5635
vt 0.59275 0.5635
vn 0 0 -1
vn 1 0 0
vn 0 0 1
vn -1 0 0
vn 0 1 0
vn 0 -1 0
usemtl m_fe6d77fe-789f-14b4-a005-34b1c9a6bc7b
f 12/28/7 15/27/7 13/26/7 10/25/7
f 11/32/8 12/31/8 10/30/8 9/29/8
f 16/36/9 11/35/9 9/34/9 14/33/9
f 15/40/10 16/39/10 14/38/10 13/37/10
f 14/44/11 9/43/11 10/42/11 13/41/11
f 15/48/12 12/47/12 11/46/12 16/45/12
o cube
v 0.09765625 3.234375 0
v 0.09765625 3.234375 -0.15625
v 0.09765625 3 0
v 0.09765625 3 -0.15625
v -0.09765625 3.234375 -0.15625
v -0.09765625 3.234375 0
v -0.09765625 3 -0.15625
v -0.09765625 3 0
vt 0.59475 0.8115
vt 0.749 0.8115
vt 0.749 0.626
vt 0.59475 0.626
vt 0.21975 0.249
vt 0.34275 0.249
vt 0.34275 0.0635
vt 0.21975 0.0635
vt 0.376 0.374
vt 0.53025 0.374
vt 0.53025 0.1885
vt 0.376 0.1885
vt 0.751 0.5615
vt 0.874 0.5615
vt 0.874 0.376
vt 0.751 0.376
vt 0.6865 0.126
vt 0.53225 0.126
vt 0.53225 0.249
vt 0.6865 0.249
vt 0.90525 0.374
vt 0.751 0.374
vt 0.751 0.251
vt 0.90525 0.251
vn 0 0 -1
vn 1 0 0
vn 0 0 1
vn -1 0 0
vn 0 1 0
vn 0 -1 0
usemtl m_fe6d77fe-789f-14b4-a005-34b1c9a6bc7b
f 20/52/13 23/51/13 21/50/13 18/49/13
f 19/56/14 20/55/14 18/54/14 17/53/14
f 24/60/15 19/59/15 17/58/15 22/57/15
f 23/64/16 24/63/16 22/62/16 21/61/16
f 22/68/17 17/67/17 18/66/17 21/65/17
f 23/72/18 20/71/18 19/70/18 24/69/18
o cube
v 0.078125 3.1171875 -0.15625
v 0.078125 3.1171875 -0.234375
v 0.078125 3.0390625 -0.15625
v 0.078125 3.0390625 -0.234375
v -0.078125 3.1171875 -0.234375
v -0.078125 3.1171875 -0.15625
v -0.078125 3.0390625 -0.234375
v -0.078125 3.0390625 -0.15625
vt 0.59475 0.624
vt 0.71775 0.624
vt 0.71775 0.5635
vt 0.59475 0.5635
vt 0.46975 0.1865
vt 0.53025 0.1865
vt 0.53025 0.126
vt 0.46975 0.126
vt 0.6885 0.249
vt 0.8115 0.249
vt 0.8115 0.1885
vt 0.6885 0.1885
vt 0.8135 0.249
vt 0.874 0.249
vt 0.874 0.1885
vt 0.8135 0.1885
vt 0.46775 0.126
vt 0.34475 0.126
vt 0.34475 0.1865
vt 0.46775 0.1865
vt 0.8115 0.1865
vt 0.6885 0.1865
vt 0.6885 0.126
vt 0.8115 0.126
vn 0 0 -1
vn 1 0 0
vn 0 0 1
vn -1 0 0
vn 0 1 0
vn 0 -1 0
usemtl m_fe6d77fe-789f-14b4-a005-34b1c9a6bc7b
f 28/76/19 31/75/19 29/74/19 26/73/19
f 27/80/20 28/79/20 26/78/20 25/77/20
f 32/84/21 27/83/21 25/82/21 30/81/21
f 31/88/22 32/87/22 30/86/22 29/85/22
f 30/92/23 25/91/23 26/90/23 29/89/23
f 31/96/24 28/95/24 27/94/24 32/93/24
o cube
v 0.0390625 3.0390625 -0.1953125
v 0.0390625 3.0390625 -0.234375
v 0.0390625 3 -0.1953125
v 0.0390625 3 -0.234375
v -0.0390625 3.0390625 -0.234375
v -0.0390625 3.0390625 -0.1953125
v -0.0390625 3 -0.234375
v -0.0390625 3 -0.1953125
vt 0.8135 0.1865
vt 0.874 0.1865
vt 0.874 0.15725
vt 0.8135 0.15725
vt 0.71975 0.624
vt 0.749 0.624
vt 0.749 0.59475
vt 0.71975 0.59475
vt 0.8135 0.15525
vt 0.874 0.15525
vt 0.874 0.126
vt 0.8135 0.126
vt 0.71975 0.59275
vt 0.749 0.59275
vt 0.749 0.5635
vt 0.71975 0.5635
vt 0.0615 0.09475
vt 0.001 0.09475
vt 0.001 0.124
vt 0.0615 0.124
vt 0.124 0.124
vt 0.0635 0.124
vt 0.0635 0.09475
vt 0.124 0.09475
vn 0 0 -1
vn 1 0 0
vn 0 0 1
vn -1 0 0
vn 0 1 0
vn 0 -1 0
usemtl m_fe6d77fe-789f-14b4-a005-34b1c9a6bc7b
f 36/100/25 39/99/25 37/98/25 34/97/25
f 35/104/26 36/103/26 34/102/26 33/101/26
f 40/108/27 35/107/27 33/106/27 38/105/27
f 39/112/28 40/111/28 38/110/28 37/109/28
f 38/116/29 33/115/29 34/114/29 37/113/29
f 39/120/30 36/119/30 35/118/30 40/117/30