# Made in Blockbench 4.9.1
mtllib rabbitonhead.mtl

o cube
v 0.078125 3.595703125 0.078125
v 0.078125 3.595703125 -0.1171875
v 0.078125 3.439453125 0.078125
v 0.078125 3.439453125 -0.1171875
v -0.078125 3.595703125 -0.1171875
v -0.078125 3.595703125 0.078125
v -0.078125 3.439453125 -0.1171875
v -0.078125 3.439453125 0.078125
vt 0.001 0.749
vt 0.124 0.749
vt 0.124 0.626
vt 0.001 0.626
vt 0.001 0.999
vt 0.15525 0.999
vt 0.15525 0.876
vt 0.001 0.876
vt 0.28225 0.999
vt 0.40525 0.999
vt 0.40525 0.876
vt 0.28225 0.876
vt 0.001 0.874
vt 0.15525 0.874
vt 0.15525 0.751
vt 0.001 0.751
vt 0.28025 0.84475
vt 0.15725 0.84475
vt 0.15725 0.999
vt 0.28025 0.999
vt 0.28025 0.84275
vt 0.15725 0.84275
vt 0.15725 0.6885
vt 0.28025 0.6885
vn 0 0 -1
vn 1 0 0
vn 0 0 1
vn -1 0 0
vn 0 1 0
vn 0 -1 0
usemtl m_a92a5597-d52d-5dd7-6de9-dbc4dc69ed19
f 4/4/1 7/3/1 5/2/1 2/1/1
f 3/8/2 4/7/2 2/6/2 1/5/2
f 8/12/3 3/11/3 1/10/3 6/9/3
f 7/16/4 8/15/4 6/14/4 5/13/4
f 6/20/5 1/19/5 2/18/5 5/17/5
f 7/24/6 4/23/6 3/22/6 8/21/6
o cube
v 0.1171875 3.556640625 0.05859375
v 0.1171875 3.556640625 -0.05859375
v 0.1171875 3.439453125 0.05859375
v 0.1171875 3.439453125 -0.05859375
v 0.078125 3.556640625 -0.05859375
v 0.078125 3.556640625 0.05859375
v 0.078125 3.439453125 -0.05859375
v 0.078125 3.439453125 0.05859375
vt 0.251 0.499
vt 0.28025 0.499
vt 0.28025 0.40725
vt 0.251 0.40725
vt 0.40725 0.8115
vt 0.499 0.8115
vt 0.499 0.71975
vt 0.40725 0.71975
vt 0.28225 0.499
vt 0.3115 0.499
vt 0.3115 0.40725
vt 0.28225 0.40725
vt 0.40725 0.71775
vt 0.499 0.71775
vt 0.499 0.626
vt 0.40725 0.626
vt 0.53025 0.626
vt 0.501 0.626
vt 0.501 0.71775
vt 0.53025 0.71775
vt 0.34275 0.499
vt 0.3135 0.499
vt 0.3135 0.40725
vt 0.34275 0.40725
vn 0 0 -1
vn 1 0 0
vn 0 0 1
vn -1 0 0
vn 0 1 0
vn 0 -1 0
usemtl m_a92a5597-d52d-5dd7-6de9-dbc4dc69ed19
f 12/28/7 15/27/7 13/26/7 10/25/7
f 11/32/8 12/31/8 10/30/8 9/29/8
f 16/36/9 11/35/9 9/34/9 14/33/9
f 15/40/10 16/39/10 14/38/10 13/37/10
f 14/44/11 9/43/11 10/42/11 13/41/11
f 15/48/12 12/47/12 11/46/12 16/45/12
o cube
v -0.078125 3.556640625 0.05859375
v -0.078125 3.556640625 -0.05859375
v -0.078125 3.439453125 0.05859375
v -0.078125 3.439453125 -0.05859375
v -0.1171875 3.556640625 -0.05859375
v -0.1171875 3.556640625 0.05859375
v -0.1171875 3.439453125 -0.05859375
v -0.1171875 3.439453125 0.05859375
vt 0.0635 0.499
vt 0.09275 0.499
vt 0.09275 0.40725
vt 0.0635 0.40725
vt 0.40725 0.999
vt 0.499 0.999
vt 0.499 0.90725
vt 0.40725 0.90725
vt 0.09475 0.499
vt 0.124 0.499
vt 0.124 0.40725
vt 0.09475 0.40725
vt 0.40725 0.90525
vt 0.499 0.90525
vt 0.499 0.8135
vt 0.40725 0.8135
vt 0.53025 0.8135
vt 0.501 0.8135
vt 0.501 0.90525
vt 0.53025 0.90525
vt 0.53025 0.8115
vt 0.501 0.8115
vt 0.501 0.71975
vt 0.53025 0.71975
vn 0 0 -1
vn 1 0 0
vn 0 0 1
vn -1 0 0
vn 0 1 0
vn 0 -1 0
usemtl m_a92a5597-d52d-5dd7-6de9-dbc4dc69ed19
f 20/52/13 23/51/13 21/50/13 18/49/13
f 19/56/14 20/55/14 18/54/14 17/53/14
f 24/60/15 19/59/15 17/58/15 22/57/15
f 23/64/16 24/63/16 22/62/16 21/61/16
f 22/68/17 17/67/17 18/66/17 21/65/17
f 23/72/18 20/71/18 19/70/18 24/69/18
o cube
v -0.078125 3.517578125 -0.05859375
v -0.078125 3.517578125 -0.09765625
v -0.078125 3.439453125 -0.05859375
v -0.078125 3.439453125 -0.09765625
v -0.1171875 3.517578125 -0.09765625
v -0.1171875 3.517578125 -0.05859375
v -0.1171875 3.439453125 -0.09765625
v -0.1171875 3.439453125 -0.05859375
vt 0.126 0.749
vt 0.15525 0.749
vt 0.15525 0.6885
vt 0.126 0.6885
vt 0.251 0.6865
vt 0.28025 0.6865
vt 0.28025 0.626
vt 0.251 0.626
vt 0.4385 0.499
vt 0.46775 0.499
vt 0.46775 0.4385
vt 0.4385 0.4385
vt 0.46975 0.499
vt 0.499 0.499
vt 0.499 0.4385
vt 0.46975 0.4385
vt 0.59275 0.876
vt 0.5635 0.876
vt 0.5635 0.90525
vt 0.59275 0.90525
vt 0.59275 0.874
vt 0.5635 0.874
vt 0.5635 0.84475
vt 0.59275 0.84475
vn 0 0 -1
vn 1 0 0
vn 0 0 1
vn -1 0 0
vn 0 1 0
vn 0 -1 0
usemtl m_a92a5597-d52d-5dd7-6de9-dbc4dc69ed19
f 28/76/19 31/75/19 29/74/19 26/73/19
f 27/80/20 28/79/20 26/78/20 25/77/20
f 32/84/21 27/83/21 25/82/21 30/81/21
f 31/88/22 32/87/22 30/86/22 29/85/22
f 30/92/23 25/91/23 26/90/23 29/89/23
f 31/96/24 28/95/24 27/94/24 32/93/24
o cube
v 0.1171875 3.517578125 -0.05859375
v 0.1171875 3.517578125 -0.09765625
v 0.1171875 3.439453125 -0.05859375
v 0.1171875 3.439453125 -0.09765625
v 0.078125 3.517578125 -0.09765625
v 0.078125 3.517578125 -0.05859375
v 0.078125 3.439453125 -0.09765625
v 0.078125 3.439453125 -0.05859375
vt 0.501 0.53025
vt 0.53025 0.53025
vt 0.53025 0.46975
vt 0.501 0.46975
vt 0.53225 0.90525
vt 0.5615 0.90525
vt 0.5615 0.84475
vt 0.53225 0.84475
vt 0.126 0.46775
vt 0.15525 0.46775
vt 0.15525 0.40725
vt 0.126 0.40725
vt 0.15725 0.46775
vt 0.1865 0.46775
vt 0.1865 0.40725
vt 0.15725 0.40725
vt 0.59275 0.8135
vt 0.5635 0.8135
vt 0.5635 0.84275
vt 0.59275 0.84275
vt 0.59275 0.8115
vt 0.5635 0.8115
vt 0.5635 0.78225
vt 0.59275 0.78225
vn 0 0 -1
vn 1 0 0
vn 0 0 1
vn -1 0 0
vn 0 1 0
vn 0 -1 0
usemtl m_a92a5597-d52d-5dd7-6de9-dbc4dc69ed19
f 36/100/25 39/99/25 37/98/25 34/97/25
f 35/104/26 36/103/26 34/102/26 33/101/26
f 40/108/27 35/107/27 33/106/27 38/105/27
f 39/112/28 40/111/28 38/110/28 37/109/28
f 38/116/29 33/115/29 34/114/29 37/113/29
f 39/120/30 36/119/30 35/118/30 40/117/30
o cube
v -0.0390625 3.517578125 -0.1171875
v -0.0390625 3.517578125 -0.15625
v -0.0390625 3.439453125 -0.1171875
v -0.0390625 3.439453125 -0.15625
v -0.078125 3.517578125 -0.15625
v -0.078125 3.517578125 -0.1171875
v -0.078125 3.439453125 -0.15625
v -0.078125 3.439453125 -0.1171875
vt 0.53225 0.84275
vt 0.5615 0.84275
vt 0.5615 0.78225
vt 0.53225 0.78225
vt 0.1885 0.46775
vt 0.21775 0.46775
vt 0.21775 0.40725
vt 0.1885 0.40725
vt 0.21975 0.46775
vt 0.249 0.46775
vt 0.249 0.40725
vt 0.21975 0.40725
vt 0.53225 0.78025
vt 0.5615 0.78025
vt 0.5615 0.71975
vt 0.53225 0.71975
vt 0.59275 0.751
vt 0.5635 0.751
vt 0.5635 0.78025
vt 0.59275 0.78025
vt 0.59275 0.749
vt 0.5635 0.749
vt 0.5635 0.71975
vt 0.59275 0.71975
vn 0 0 -1
vn 1 0 0
vn 0 0 1
vn -1 0 0
vn 0 1 0
vn 0 -1 0
usemtl m_a92a5597-d52d-5dd7-6de9-dbc4dc69ed19
f 44/124/31 47/123/31 45/122/31 42/121/31
f 43/128/32 44/127/32 42/126/32 41/125/32
f 48/132/33 43/131/33 41/130/33 46/129/33
f 47/136/34 48/135/34 46/134/34 45/133/34
f 46/140/35 41/139/35 42/138/35 45/137/35
f 47/144/36 44/143/36 43/142/36 48/141/36
o cube
v 0.078125 3.517578125 -0.1171875
v 0.078125 3.517578125 -0.15625
v 0.078125 3.439453125 -0.1171875
v 0.078125 3.439453125 -0.15625
v 0.0390625 3.517578125 -0.15625
v 0.0390625 3.517578125 -0.1171875
v 0.0390625 3.439453125 -0.15625
v 0.0390625 3.439453125 -0.1171875
vt 0.53225 0.71775
vt 0.5615 0.71775
vt 0.5615 0.65725
vt 0.53225 0.65725
vt 0.53225 0.65525
vt 0.5615 0.65525
vt 0.5615 0.59475
vt 0.53225 0.59475
vt 0.53225 0.59275
vt 0.5615 0.59275
vt 0.5615 0.53225
vt 0.53225 0.53225
vt 0.53225 0.53025
vt 0.5615 0.53025
vt 0.5615 0.46975
vt 0.53225 0.46975
vt 0.59275 0.6885
vt 0.5635 0.6885
vt 0.5635 0.71775
vt 0.59275 0.71775
vt 0.59275 0.6865
vt 0.5635 0.6865
vt 0.5635 0.65725
vt 0.59275 0.65725
vn 0 0 -1
vn 1 0 0
vn 0 0 1
vn -1 0 0
vn 0 1 0
vn 0 -1 0
usemtl m_a92a5597-d52d-5dd7-6de9-dbc4dc69ed19
f 52/148/37 55/147/37 53/146/37 50/145/37
f 51/152/38 52/151/38 50/150/38 49/149/38
f 56/156/39 51/155/39 49/154/39 54/153/39
f 55/160/40 56/159/40 54/158/40 53/157/40
f 54/164/41 49/163/41 50/162/41 53/161/41
f 55/168/42 52/167/42 51/166/42 56/165/42
o cube
v 0.078125 3.751953125 0.01953125
v 0.078125 3.751953125 -0.13671875
v 0.078125 3.595703125 0.01953125
v 0.078125 3.595703125 -0.13671875
v -0.078125 3.751953125 -0.13671875
v -0.078125 3.751953125 0.01953125
v -0.078125 3.595703125 -0.13671875
v -0.078125 3.595703125 0.01953125
vt 0.28225 0.874
vt 0.40525 0.874
vt 0.40525 0.751
vt 0.28225 0.751
vt 0.28225 0.749
vt 0.40525 0.749
vt 0.40525 0.626
vt 0.28225 0.626
vt 0.126 0.6865
vt 0.249 0.6865
vt 0.249 0.5635
vt 0.126 0.5635
vt 0.001 0.624
vt 0.124 0.624
vt 0.124 0.501
vt 0.001 0.501
vt 0.374 0.501
vt 0.251 0.501
vt 0.251 0.624
vt 0.374 0.624
vt 0.499 0.624
vt 0.376 0.624
vt 0.376 0.501
vt 0.499 0.501
vn 0 0 -1
vn 1 0 0
vn 0 0 1
vn -1 0 0
vn 0 1 0
vn 0 -1 0
usemtl m_a92a5597-d52d-5dd7-6de9-dbc4dc69ed19
f 60/172/43 63/171/43 61/170/43 58/169/43
f 59/176/44 60/175/44 58/174/44 57/173/44
f 64/180/45 59/179/45 57/178/45 62/177/45
f 63/184/46 64/183/46 62/182/46 61/181/46
f 62/188/47 57/187/47 58/186/47 61/185/47
f 63/192/48 60/191/48 59/190/48 64/189/48
o cube
v 0.09765625 3.869140625 -0.01953125
v 0.09765625 3.869140625 -0.05859375
v 0.09765625 3.751953125 -0.01953125
v 0.09765625 3.751953125 -0.05859375
v 0.01953125 3.869140625 -0.05859375
v 0.01953125 3.869140625 -0.01953125
v 0.01953125 3.751953125 -0.05859375
v 0.01953125 3.751953125 -0.01953125
vt 0.126 0.5615
vt 0.1865 0.5615
vt 0.1865 0.46975
vt 0.126 0.46975
vt 0.34475 0.499
vt 0.374 0.499
vt 0.374 0.40725
vt 0.34475 0.40725
vt 0.1885 0.5615
vt 0.249 0.5615
vt 0.249 0.46975
vt 0.1885 0.46975
vt 0.376 0.499
vt 0.40525 0.499
vt 0.40525 0.40725
vt 0.376 0.40725
vt 0.5615 0.4385
vt 0.501 0.4385
vt 0.501 0.46775
vt 0.5615 0.46775
vt 0.624 0.999
vt 0.5635 0.999
vt 0.5635 0.96975
vt 0.624 0.96975
vn 0 0 -1
vn 1 0 0
vn 0 0 1
vn -1 0 0
vn 0 1 0
vn 0 -1 0
usemtl m_a92a5597-d52d-5dd7-6de9-dbc4dc69ed19
f 68/196/49 71/195/49 69/194/49 66/193/49
f 67/200/50 68/199/50 66/198/50 65/197/50
f 72/204/51 67/203/51 65/202/51 70/201/51
f 71/208/52 72/207/52 70/206/52 69/205/52
f 70/212/53 65/211/53 66/210/53 69/209/53
f 71/216/54 68/215/54 67/214/54 72/213/54
o cube
v -0.01953125 3.869140625 -0.01953125
v -0.01953125 3.869140625 -0.05859375
v -0.01953125 3.751953125 -0.01953125
v -0.01953125 3.751953125 -0.05859375
v -0.09765625 3.869140625 -0.05859375
v -0.09765625 3.869140625 -0.01953125
v -0.09765625 3.751953125 -0.05859375
v -0.09765625 3.751953125 -0.01953125
vt 0.001 0.499
vt 0.0615 0.499
vt 0.0615 0.40725
vt 0.001 0.40725
vt 0.501 0.624
vt 0.53025 0.624
vt 0.53025 0.53225
vt 0.501 0.53225
vt 0.501 0.999
vt 0.5615 0.999
vt 0.5615 0.90725
vt 0.501 0.90725
vt 0.40725 0.499
vt 0.4365 0.499
vt 0.4365 0.40725
vt 0.40725 0.40725
vt 0.624 0.9385
vt 0.5635 0.9385
vt 0.5635 0.96775
vt 0.624 0.96775
vt 0.624 0.9365
vt 0.5635 0.9365
vt 0.5635 0.90725
vt 0.624 0.90725
vn 0 0 -1
vn 1 0 0
vn 0 0 1
vn -1 0 0
vn 0 1 0
vn 0 -1 0
usemtl m_a92a5597-d52d-5dd7-6de9-dbc4dc69ed19
f 76/220/55 79/219/55 77/218/55 74/217/55
f 75/224/56 76/223/56 74/222/56 73/221/56
f 80/228/57 75/227/57 73/226/57 78/225/57
f 79/232/58 80/231/58 78/230/58 77/229/58
f 78/236/59 73/235/59 74/234/59 77/233/59
f 79/240/60 76/239/60 75/238/60 80/237/60
o cube
v 0.0390625 3.556640625 0.15625
v 0.0390625 3.556640625 0.078125
v 0.0390625 3.478515625 0.15625
v 0.0390625 3.478515625 0.078125
v -0.0390625 3.556640625 0.078125
v -0.0390625 3.556640625 0.15625
v -0.0390625 3.478515625 0.078125
v -0.0390625 3.478515625 0.15625
vt 0.5635 0.78025
vt 0.624 0.78025
vt 0.624 0.71975
vt 0.5635 0.71975
vt 0.5635 0.71775
vt 0.624 0.71775
vt 0.624 0.65725
vt 0.5635 0.65725
vt 0.5635 0.65525
vt 0.624 0.65525
vt 0.624 0.59475
vt 0.5635 0.59475
vt 0.5635 0.59275
vt 0.624 0.59275
vt 0.624 0.53225
vt 0.5635 0.53225
vt 0.5635 0.53025
vt 0.624 0.53025
vt 0.624 0.46975
vt 0.5635 0.46975
vt 0.5635 0.46775
vt 0.624 0.46775
vt 0.624 0.40725
vt 0.5635 0.40725
vn 0 0 -1
vn 1 0 0
vn 0 0 1
vn -1 0 0
vn 0 1 0
vn 0 -1 0
usemtl m_a92a5597-d52d-5dd7-6de9-dbc4dc69ed19
f 84/244/61 87/243/61 85/242/61 82/241/61
f 83/248/62 84/247/62 82/246/62 81/245/62
f 88/252/63 83/251/63 81/250/63 86/249/63
f 87/256/64 88/255/64 86/254/64 85/253/64
f 86/260/65 81/259/65 82/258/65 85/257/65
f 87/264/66 84/263/66 83/262/66 88/261/66